<?xml version="1.0" encoding="iso-8859-1"?>
<!-- Uploaded to: SVG Repo, www.svgrepo.com, Generator: SVG Repo Mixer Tools -->
<svg fill="#000000" height="800px" width="800px" version="1.1" id="Layer_1" xmlns="http://www.w3.org/2000/svg" xmlns:xlink="http://www.w3.org/1999/xlink" 
	 viewBox="0 0 511.999 511.999" xml:space="preserve">
<g>
	<g>
		<path d="M493.531,93.805c-15.856-15.857-38.052-21.48-58.411-16.924c4.557-20.37-1.072-42.56-16.924-58.411
			c-24.622-24.623-64.548-24.626-89.174,0c-25.656,25.656-24.593,67.959,3.259,92.188l-45.105,45.105l36.998,6.338
			c5.223,0.893,9.769,4.077,12.392,8.681c2.623,4.602,3.049,10.137,1.157,15.086l-12.363,32.357l12.98,24.497l63.003-63.003
			c24.243,27.876,66.555,28.892,92.188,3.259C518.155,158.353,518.155,118.43,493.531,93.805z"/>
	</g>
</g>
<g>
	<g>
		<path d="M290.311,227.7c-2.391-4.512-2.718-9.837-0.894-14.608l7.54-19.733l-52.687-9.025l0.062-0.361
			c-65.188-2.999-151.827,36.461-195.859,80.493c-60.496,60.495-64.976,154.099-10.007,209.067
			c54.951,54.951,148.552,50.509,209.068-10.007c37.792-37.792,72.194-106.992,79.309-167.018L290.311,227.7z"/>
	</g>
</g>
</svg>