<svg width="95" height="127" viewBox="0 0 95 127" fill="none" xmlns="http://www.w3.org/2000/svg">
<path d="M71.25 23.8125C74.5293 23.8125 77.1875 27.3663 77.1875 31.75V95.25C77.1875 99.6339 74.5293 103.188 71.25 103.188C67.9707 103.188 65.3125 99.6339 65.3125 95.25V71.4375H29.6875V95.25C29.6875 99.6339 27.0292 103.188 23.75 103.188C20.4708 103.188 17.8125 99.6339 17.8125 95.25V31.75C17.8125 27.3663 20.4708 23.8125 23.75 23.8125C27.0292 23.8125 29.6875 27.3663 29.6875 31.75V55.5625H65.3125V31.75C65.3125 27.3663 67.9707 23.8125 71.25 23.8125ZM5.9375 39.6875C9.21666 39.6875 11.875 43.2413 11.875 47.625V79.375C11.875 83.7589 9.21666 87.3125 5.9375 87.3125C2.65831 87.3125 0 83.7589 0 79.375V47.625C0 43.2413 2.65831 39.6875 5.9375 39.6875ZM89.0625 39.6875C92.3418 39.6875 95 43.2413 95 47.625V79.375C95 83.7589 92.3418 87.3125 89.0625 87.3125C85.7832 87.3125 83.125 83.7589 83.125 79.375V47.625C83.125 43.2413 85.7832 39.6875 89.0625 39.6875Z" fill="#F2613F" fill-opacity="0.9"/>
</svg>
