<svg width="20" height="20" viewBox="0 0 20 20" fill="none" xmlns="http://www.w3.org/2000/svg">
<path d="M10.7374 17.4998H17.0834C17.7738 17.4998 18.3334 16.9402 18.3334 16.2498C18.3334 15.5595 17.7738 14.9998 17.0834 14.9998H11.5757C11.1032 14.9998 10.6529 14.7993 10.3369 14.4481L4.16127 7.58634C3.71127 7.08634 2.93402 7.0659 2.45836 7.54156C2.0152 7.98471 1.99824 8.69781 2.41981 9.16154L9.50413 16.9543C9.82 17.3017 10.2678 17.4998 10.7374 17.4998Z" stroke="#865A19" stroke-width="1.25" stroke-linecap="round" stroke-linejoin="round"/>
<path d="M14.2596 10.9492L17.5001 14.9999H10.8335L3.92104 7.31939C3.60164 6.96451 3.04997 6.95001 2.71237 7.28761L2.50012 7.49986L5.55454 2.61279C5.95431 1.97315 6.93043 2.15138 7.07836 2.89103L7.50012 4.99986H9.04063C9.12289 4.99986 9.20331 4.97551 9.27176 4.92988L9.85118 4.54359C10.7656 3.934 12.0093 4.36074 12.3568 5.4033L14.1198 10.6922C14.1509 10.7855 14.1982 10.8725 14.2596 10.9492Z" stroke="#865A19" stroke-width="1.25" stroke-linecap="round" stroke-linejoin="round"/>
<path d="M12.5001 7.49988L9.16675 8.33321" stroke="#865A19" stroke-width="1.25" stroke-linecap="round" stroke-linejoin="round"/>
<path d="M9.84854 9.3935C9.51367 9.47722 9.31007 9.81655 9.39378 10.1514C9.4775 10.4863 9.81684 10.6899 10.1517 10.6062L9.84854 9.3935ZM13.1819 8.56016L9.84854 9.3935L10.1517 10.6062L13.485 9.77284L13.1819 8.56016Z" fill="#865A19"/>
<path d="M5.83341 17.4999H1.66675" stroke="#865A19" stroke-width="1.25" stroke-linecap="round" stroke-linejoin="round"/>
<path d="M3.33341 14.9999H1.66675" stroke="#865A19" stroke-width="1.25" stroke-linecap="round" stroke-linejoin="round"/>
</svg>
